# xmcd
#
# Track frame offsets: 
#        150
#        23873
#        38401
#        53877
#        85068
#        104222
#        125215
#        154511
#        171993
#        189252
#        208907
#        230847
#        247549
#        267037
#        281454
#
# Disc length: 4023 seconds
#
# Revision: 1
# Processed by: cddbd v1.5.2PL0 Copyright (c) Steve Scherf et al.
# Submitted via: ExactAudioCopyFreeDBPlugin 1.0
#
DISCID=ca0fb50f
DTITLE=Various Artist - The Rough Guide to Mali Blues
DYEAR=2019
DGENRE=World
TTITLE0=Samba Touré - Yermakoye
TTITLE1=Tartit - Afous Dafous
TTITLE2=Ali Baba Cissé - Kaya
TTITLE3=Sabu Doriente - Yawoyé
TTITLE4=Anansy Cissé - Gomni
TTITLE5=Modiba Diabaté - Bonya
TTITLE6=Alkibar Jr - La Paix
TTITLE7=Alba Griot Ensemble - Horonia
TTITLE8=Souleymane Arby - Takamba
TTITLE9=Abba Gala - Cissé
TTITLE10=Djambé Kambé - Sadio
TTITLE11=Bally Du Dezer - Tiow
TTITLE12=Moussa Sarré - Baoudi
TTITLE13=Espoir De Niafunké - La Paix Au Nord Du Mali
TTITLE14=Tahaninte - Solane
EXTD=
EXTT0=
EXTT1=
EXTT2=
EXTT3=
EXTT4=
EXTT5=
EXTT6=
EXTT7=
EXTT8=
EXTT9=
EXTT10=
EXTT11=
EXTT12=
EXTT13=
EXTT14=
PLAYORDER=
